<svg id="visual" viewBox="0 0 900 600" width="900" height="600" xmlns="http://www.w3.org/2000/svg" xmlns:xlink="http://www.w3.org/1999/xlink" version="1.1"><path d="M0 55L13.7 63C27.3 71 54.7 87 82 93C109.3 99 136.7 95 163.8 92C191 89 218 87 245.2 85C272.3 83 299.7 81 327 75C354.3 69 381.7 59 409 63C436.3 67 463.7 85 491 93C518.3 101 545.7 99 573 91C600.3 83 627.7 69 654.8 66C682 63 709 71 736.2 76C763.3 81 790.7 83 818 86C845.3 89 872.7 93 886.3 95L900 97L900 0L886.3 0C872.7 0 845.3 0 818 0C790.7 0 763.3 0 736.2 0C709 0 682 0 654.8 0C627.7 0 600.3 0 573 0C545.7 0 518.3 0 491 0C463.7 0 436.3 0 409 0C381.7 0 354.3 0 327 0C299.7 0 272.3 0 245.2 0C218 0 191 0 163.8 0C136.7 0 109.3 0 82 0C54.7 0 27.3 0 13.7 0L0 0Z" fill="#000000"></path><path d="M0 157L13.7 174C27.3 191 54.7 225 82 231C109.3 237 136.7 215 163.8 222C191 229 218 265 245.2 287C272.3 309 299.7 317 327 301C354.3 285 381.7 245 409 243C436.3 241 463.7 277 491 308C518.3 339 545.7 365 573 369C600.3 373 627.7 355 654.8 346C682 337 709 337 736.2 324C763.3 311 790.7 285 818 274C845.3 263 872.7 267 886.3 269L900 271L900 95L886.3 93C872.7 91 845.3 87 818 84C790.7 81 763.3 79 736.2 74C709 69 682 61 654.8 64C627.7 67 600.3 81 573 89C545.7 97 518.3 99 491 91C463.7 83 436.3 65 409 61C381.7 57 354.3 67 327 73C299.7 79 272.3 81 245.2 83C218 85 191 87 163.8 90C136.7 93 109.3 97 82 91C54.7 85 27.3 69 13.7 61L0 53Z" fill="#000000"></path><path d="M0 313L13.7 320C27.3 327 54.7 341 82 339C109.3 337 136.7 319 163.8 333C191 347 218 393 245.2 406C272.3 419 299.7 399 327 381C354.3 363 381.7 347 409 358C436.3 369 463.7 407 491 427C518.3 447 545.7 449 573 442C600.3 435 627.7 419 654.8 409C682 399 709 395 736.2 397C763.3 399 790.7 407 818 397C845.3 387 872.7 359 886.3 345L900 331L900 269L886.3 267C872.7 265 845.3 261 818 272C790.7 283 763.3 309 736.2 322C709 335 682 335 654.8 344C627.7 353 600.3 371 573 367C545.7 363 518.3 337 491 306C463.7 275 436.3 239 409 241C381.7 243 354.3 283 327 299C299.7 315 272.3 307 245.2 285C218 263 191 227 163.8 220C136.7 213 109.3 235 82 229C54.7 223 27.3 189 13.7 172L0 155Z" fill="#000000"></path><path d="M0 541L13.7 542C27.3 543 54.7 545 82 541C109.3 537 136.7 527 163.8 527C191 527 218 537 245.2 543C272.3 549 299.7 551 327 550C354.3 549 381.7 545 409 547C436.3 549 463.7 557 491 560C518.3 563 545.7 561 573 559C600.3 557 627.7 555 654.8 547C682 539 709 525 736.2 526C763.3 527 790.7 543 818 547C845.3 551 872.7 543 886.3 539L900 535L900 329L886.3 343C872.7 357 845.3 385 818 395C790.7 405 763.3 397 736.2 395C709 393 682 397 654.8 407C627.7 417 600.3 433 573 440C545.7 447 518.3 445 491 425C463.7 405 436.3 367 409 356C381.7 345 354.3 361 327 379C299.7 397 272.3 417 245.2 404C218 391 191 345 163.8 331C136.7 317 109.3 335 82 337C54.7 339 27.3 325 13.7 318L0 311Z" fill="#181818"></path><path d="M0 601L13.7 601C27.3 601 54.7 601 82 601C109.3 601 136.7 601 163.8 601C191 601 218 601 245.2 601C272.3 601 299.7 601 327 601C354.3 601 381.7 601 409 601C436.3 601 463.7 601 491 601C518.3 601 545.7 601 573 601C600.3 601 627.7 601 654.8 601C682 601 709 601 736.2 601C763.3 601 790.7 601 818 601C845.3 601 872.7 601 886.3 601L900 601L900 533L886.3 537C872.7 541 845.3 549 818 545C790.7 541 763.3 525 736.2 524C709 523 682 537 654.8 545C627.7 553 600.3 555 573 557C545.7 559 518.3 561 491 558C463.7 555 436.3 547 409 545C381.7 543 354.3 547 327 548C299.7 549 272.3 547 245.2 541C218 535 191 525 163.8 525C136.7 525 109.3 535 82 539C54.7 543 27.3 541 13.7 540L0 539Z" fill="#282828"></path></svg>